Coordinates
version=1
nRows=13
nColumns=36
inDegrees=yes

Units are S.I. units (second, meters, Newtons, ...)
If the header above contains a line with 'inDegrees', this indicates whether rotational values are in degrees (yes) or radians (no).

endheader
time	pelvis_tilt	pelvis_list	pelvis_rotation	pelvis_tx	pelvis_ty	pelvis_tz	hip_flexion_r	hip_adduction_r	hip_rotation_r	knee_angle_r	knee_angle_r_beta	ankle_angle_r	subtalar_angle_r	mtp_angle_r	hip_flexion_l	hip_adduction_l	hip_rotation_l	knee_angle_l	knee_angle_l_beta	ankle_angle_l	subtalar_angle_l	mtp_angle_l	lumbar_extension	lumbar_bending	lumbar_rotation	arm_flex_r	arm_add_r	arm_rot_r	elbow_flex_r	pro_sup_r	arm_flex_l	arm_add_l	arm_rot_l	elbow_flex_l	pro_sup_l
      2.44583330	    -13.48419191	     -2.18920940	      5.01684505	      0.27747604	      1.02192448	     -0.05961042	     15.01488360	     -5.85560271	    -12.74638624	      4.48388449	      0.07825855	    -22.12951158	     -6.00819965	     -7.49999987	     16.74678259	     -5.64981737	     -1.35190163	      8.97311929	      0.15661048	    -20.25240075	    -10.09294754	     -7.49999987	      1.67420404	     -0.70636447	     -1.17011146	     52.09599892	    -42.46561605	     36.79431237	     81.60553212	     78.72384714	     53.52765125	    -42.60329709	     17.78511015	    103.18986422	     65.41123827
      2.45000000	    -13.59580198	     -2.11701690	      5.14124120	      0.27734799	      1.03102826	     -0.05958909	     14.83158419	     -5.89365895	    -13.58200394	      3.62332590	      0.06323897	    -23.68516366	     -5.09056979	     -7.49999987	     16.72554573	     -5.69009553	     -1.87213759	      8.12319815	      0.14177655	    -23.01284339	     -8.96746201	     -7.49999987	      1.54902183	     -0.88938813	     -0.81520173	     49.68930235	    -42.40721543	     35.05185553	     81.19396903	     77.41608313	     51.84222437	    -41.18842155	     16.49781246	    103.47611854	     65.19719283
      2.45416670	    -13.42732143	     -2.02264852	      5.53767387	      0.28079543	      1.03739021	     -0.06485415	     14.32298316	     -6.14877622	    -14.39617714	      2.96794159	      0.05180035	    -24.82672792	     -4.73706372	     -7.49999987	     16.40633861	     -5.41845353	     -2.51782691	      7.39015030	      0.12898246	    -25.77426574	     -8.45539753	     -7.49999987	      1.27706153	     -0.85322147	     -0.74420114	     47.90147677	    -42.49117280	     34.74905072	     80.84932034	     77.67160733	     50.42305907	    -39.99281984	     15.92274131	    103.59330688	     65.27219866
      2.45833330	    -13.06402552	     -2.04793642	      5.63799622	      0.28049356	      1.03958179	     -0.06436038	     13.95998313	     -6.16435666	    -14.77586951	      2.94405358	      0.05138343	    -25.44967708	     -5.19441840	     -7.49999987	     16.18246443	     -5.46872283	     -2.95025128	      7.30866671	      0.12756030	    -27.92623691	     -8.90145171	     -7.49999987	      0.69590601	     -0.75959968	     -0.38560285	     46.03372175	    -42.40526332	     32.94607617	     80.13729197	     76.96012470	     49.28329329	    -38.44008598	     14.70176379	    103.59428333	     65.09829613
      2.46250000	    -13.15044955	     -2.05492795	      5.59969752	      0.28055998	      1.04744779	     -0.06493255	     14.16768915	     -6.16459542	    -15.22234843	      3.03371774	      0.05294836	    -25.88242189	     -5.66038185	     -7.49999987	     16.30500009	     -5.44622091	     -3.53088000	      7.12686952	      0.12438734	    -29.08674518	     -9.00021395	     -7.49999987	      0.51131830	     -1.00593201	      0.87561399	     41.62170096	    -42.89430483	     27.73490646	     81.18868828	     81.20494501	     49.56883674	    -36.45430134	     15.57922449	    103.29524552	     66.76339970
      2.46666670	    -13.12259231	     -1.97710760	      5.33767394	      0.28048472	      1.05473960	     -0.06455547	     14.28581823	     -6.15311278	    -15.30816289	      3.07676395	      0.05369966	    -25.66306373	     -5.90779170	     -7.49999987	     16.17269104	     -5.42815607	     -4.23693342	      6.72303857	      0.11733916	    -29.73614092	     -9.17122160	     -7.49999987	      0.29585348	     -1.21572999	      0.98525948	     40.57543251	    -42.34802561	     27.39355313	     80.09067878	     81.18074423	     48.90311022	    -35.72002986	     14.95270269	    103.85130503	     66.72568725
      2.47083330	    -13.11260377	     -2.04239879	      5.16135607	      0.28025295	      1.05943638	     -0.06494681	     14.34779874	     -5.98656729	    -15.71312010	      3.17470077	      0.05540898	    -25.30650587	     -6.15741903	     -7.49999987	     16.06635765	     -5.51905417	     -4.88596525	      6.36659555	      0.11111805	    -29.81146051	     -9.30407566	     -7.49999987	      0.35305499	     -1.25415290	      1.16609593	     39.61997675	    -42.15717678	     27.18923545	     79.23697161	     81.17660112	     47.87173729	    -34.75008449	     14.68046987	    104.63526375	     66.70324747
      2.47500000	    -13.31156252	     -1.84607953	      4.96696390	      0.28008134	      1.06830107	     -0.06450043	     14.63582130	     -6.09899205	    -16.12624218	      3.04004901	      0.05305886	    -25.24922407	     -6.02801031	     -7.49999987	     16.11573691	     -5.25950116	     -5.94154075	      5.94310096	      0.10372668	    -30.25990240	     -9.57041032	     -7.49999987	      0.53295194	     -1.62157564	      1.23840687	     38.42095332	    -40.97899493	     26.16308087	     78.58923784	     79.64904715	     46.61458276	    -33.63848215	     13.63325754	    105.36893031	     66.11385447
      2.47916670	    -13.50216127	     -1.55697393	      4.70283294	      0.28089114	      1.07746143	     -0.06459181	     14.93823141	     -6.16719696	    -16.93602601	      2.79343369	      0.04875462	    -25.24354274	     -5.49551592	     -7.49999987	     16.03750571	     -4.88784578	     -7.27529515	      5.33953615	      0.09319249	    -30.93870641	     -9.52457452	     -7.49999987	      0.61324780	     -1.93792772	      1.31308324	     37.70701408	    -40.25095357	     26.07685303	     77.51592549	     78.74215114	     45.26317859	    -32.70851157	     13.16887581	    106.15020735	     65.60464709
      2.48333330	    -13.56125727	     -1.36536100	      4.29751684	      0.28052774	      1.08532410	     -0.06374289	     15.19326717	     -6.02366700	    -17.73194273	      2.66392415	      0.04649425	    -25.74424329	     -5.52059461	     -7.49999987	     15.82205603	     -4.67012257	     -8.55998879	      4.77697232	      0.08337390	    -31.46769815	     -9.56161432	     -7.49999987	      0.38512150	     -2.06690299	      1.66918486	     37.09854443	    -39.45301885	     26.16637977	     76.79781986	     78.94489266	     44.24270574	    -31.63400614	     13.18229323	    106.83218797	     65.65849070
      2.48750000	    -13.47772449	     -1.15378890	      3.99001026	      0.28071501	      1.08528205	     -0.06373214	     15.34847584	     -5.91234209	    -18.75983516	      2.71852518	      0.04744722	    -26.12385058	     -6.36289222	     -7.49999987	     15.65780293	     -4.46151051	     -9.85384769	      4.66458712	      0.08141240	    -31.58488250	     -9.43881230	     -7.49999987	      0.04195259	     -2.17642200	      1.72279185	     36.93433967	    -38.44189915	     25.68166175	     75.95133933	     78.23430772	     43.34796238	    -30.84083889	     12.45148920	    107.68799425	     65.40660767
      2.49166670	    -13.57228574	     -1.10672973	      3.93335744	      0.28082269	      1.09380110	     -0.06356056	     15.53891814	     -5.70753463	    -19.46831314	      2.92844210	      0.05111096	    -26.73346890	     -6.34403292	     -7.49999987	     15.82485663	     -4.36886626	    -10.56562336	      4.80863270	      0.08392647	    -31.55022130	     -9.21501000	     -7.49999987	     -0.20599611	     -1.83138572	      0.54662252	     37.96568156	    -36.70581494	     26.70259758	     74.32930709	     81.61624722	     40.86045910	    -31.14115236	      9.96256622	    109.57436846	     66.04434694
      2.49583330	    -13.43926935	     -0.99018115	      3.98134294	      0.28121554	      1.09703149	     -0.06394845	     15.50996297	     -5.66033825	    -19.85657628	      3.27098366	      0.05708943	    -27.62717300	     -6.66910127	     -7.49999987	     15.80042999	     -4.17836974	    -10.85923230	      5.35712639	      0.09349949	    -31.38925752	     -8.90415800	     -7.49999987	     -0.60606523	     -1.78113164	      0.88104344	     36.91098927	    -36.18932449	     26.17791199	     74.46146274	     79.83543318	     40.34727408	    -30.12621219	      9.98847961	    110.11852105	     65.52840937
